<?xml version="1.0" standalone="no"?>
<!DOCTYPE svg PUBLIC "-//W3C//DTD SVG 20010904//EN"
 "http://www.w3.org/TR/2001/REC-SVG-20010904/DTD/svg10.dtd">
<svg version="1.0" xmlns="http://www.w3.org/2000/svg"
 width="700.000000pt" height="700.000000pt" viewBox="0 0 700.000000 700.000000"
 preserveAspectRatio="xMidYMid meet">
<metadata>
Created by potrace 1.14, written by Peter Selinger 2001-2017
</metadata>
<g transform="translate(0.000000,700.000000) scale(0.100000,-0.100000)"
fill="#000000" stroke="none">
<path d="M4550 5181 c-81 -17 -118 -52 -261 -246 -40 -55 -76 -102 -79 -105
-3 -3 -17 -21 -30 -40 -14 -19 -461 -617 -994 -1329 -533 -712 -977 -1313
-987 -1335 -16 -38 -20 -111 -8 -156 10 -38 63 -100 105 -125 37 -22 59 -27
108 -27 71 0 100 10 144 47 17 15 159 196 314 403 155 207 477 638 716 957
239 319 443 591 453 605 11 14 145 194 299 400 155 206 286 382 293 390 52 65
158 212 171 239 84 162 -65 358 -244 322z"/>
<path d="M1596 5134 c-46 -14 -107 -73 -803 -768 -572 -572 -757 -763 -772
-797 -24 -52 -23 -137 3 -190 10 -21 314 -333 761 -780 570 -570 755 -749 790
-765 93 -43 210 -9 274 80 31 43 35 58 37 115 2 51 -2 76 -19 109 -15 29 -236
257 -670 691 l-647 647 658 660 c718 718 694 690 686 797 -10 151 -152 246
-298 201z"/>
<path d="M5243 5126 c-104 -49 -154 -158 -123 -274 12 -44 62 -96 672 -707
l659 -661 -646 -644 c-355 -355 -658 -665 -673 -690 -46 -77 -30 -201 33 -265
65 -64 175 -87 257 -52 26 11 268 246 791 769 710 709 755 756 771 806 22 65
17 138 -13 185 -33 54 -1493 1507 -1536 1529 -57 30 -132 31 -192 4z"/>
</g>
</svg>
